<svg xmlns="http://www.w3.org/2000/svg" xmlns:xlink="http://www.w3.org/1999/xlink" width="21.386" height="21.884" viewBox="0 0 21.386 21.884">
  <defs>
    <clipPath id="clip-path">
      <path id="Path_2215" data-name="Path 2215" d="M23.138,10.952h-10.2V15.18h5.869c-.547,2.686-2.835,4.228-5.869,4.228a6.466,6.466,0,1,1,0-12.931A6.326,6.326,0,0,1,16.97,7.919l3.183-3.183a10.935,10.935,0,1,0-7.212,19.148c5.471,0,10.444-3.979,10.444-10.942A9.077,9.077,0,0,0,23.138,10.952Z" transform="translate(-2 -2)"/>
    </clipPath>
  </defs>
  <g id="Google__G__Logo" data-name="Google_&quot;G&quot;_Logo" transform="translate(-2 -2)">
    <g id="Group_69" data-name="Group 69" transform="translate(2 2)" clip-path="url(#clip-path)">
      <path id="Path_2214" data-name="Path 2214" d="M0,23.931V11l8.455,6.466Z" transform="translate(-0.995 -6.524)" fill="#fbbc05"/>
    </g>
    <g id="Group_70" data-name="Group 70" transform="translate(2 2)" clip-path="url(#clip-path)">
      <path id="Path_2216" data-name="Path 2216" d="M0,5.471l8.455,6.466L11.936,8.9l11.936-1.94V0H0Z" transform="translate(-0.995 -0.995)" fill="#ea4335"/>
    </g>
    <g id="Group_71" data-name="Group 71" transform="translate(2 2)" clip-path="url(#clip-path)">
      <path id="Path_2218" data-name="Path 2218" d="M0,18.4,14.921,6.963l3.929.5L23.873,0V23.873H0Z" transform="translate(-0.995 -0.995)" fill="#34a853"/>
    </g>
    <g id="Group_72" data-name="Group 72" transform="translate(2 2)" clip-path="url(#clip-path)">
      <path id="Path_2220" data-name="Path 2220" d="M30.407,29.4,14.989,17.466,13,15.974,30.407,11Z" transform="translate(-7.529 -6.524)" fill="#4285f4"/>
    </g>
  </g>
</svg>
