<?xml version="1.0" standalone="no"?>
<!DOCTYPE svg PUBLIC "-//W3C//DTD SVG 20010904//EN"
 "http://www.w3.org/TR/2001/REC-SVG-20010904/DTD/svg10.dtd">
<svg version="1.0" xmlns="http://www.w3.org/2000/svg"
 width="1392.000000pt" height="1392.000000pt" viewBox="0 0 1392.000000 1392.000000"
 preserveAspectRatio="xMidYMid meet">
<metadata>
Created by potrace 1.11, written by Peter Selinger 2001-2013
</metadata>
<g transform="translate(0.000000,1392.000000) scale(0.100000,-0.100000)"
fill="#000000" stroke="none">
<path d="M6854 13896 c-83 -38 -115 -83 -152 -211 -11 -38 -39 -133 -62 -210
-66 -224 -139 -471 -175 -595 -18 -63 -42 -144 -53 -180 -11 -36 -22 -74 -25
-85 -3 -11 -31 -105 -62 -210 -31 -104 -72 -242 -90 -305 -18 -63 -81 -277
-140 -475 -109 -367 -188 -637 -230 -780 -12 -44 -35 -120 -50 -170 -14 -49
-58 -198 -97 -330 -38 -132 -86 -292 -105 -355 -19 -63 -44 -149 -55 -190 -11
-41 -22 -82 -25 -90 -3 -8 -7 -19 -9 -25 -3 -14 -74 -251 -139 -470 -30 -99
-69 -234 -88 -300 -32 -110 -110 -372 -174 -585 -14 -47 -29 -98 -33 -115 -4
-16 -27 -93 -49 -170 -23 -77 -57 -192 -76 -255 -52 -177 -104 -355 -137 -465
-16 -55 -31 -107 -33 -115 -2 -8 -25 -85 -50 -170 -26 -85 -48 -162 -50 -170
-2 -8 -71 -242 -154 -520 -82 -278 -155 -525 -162 -550 -17 -61 -13 -50 -59
-200 -22 -74 -42 -142 -44 -150 -3 -8 -74 -251 -159 -540 -86 -289 -172 -581
-192 -650 -33 -114 -128 -435 -192 -650 -13 -47 -40 -137 -58 -200 -127 -432
-199 -676 -219 -745 -28 -90 -58 -191 -111 -375 -20 -69 -45 -152 -55 -185
-10 -33 -28 -91 -39 -130 -11 -38 -49 -169 -85 -290 -35 -121 -74 -251 -85
-290 -11 -38 -40 -139 -65 -224 -28 -94 -42 -157 -36 -161 6 -4 6 -20 -1 -45
-14 -49 -8 -119 14 -165 21 -45 109 -137 170 -179 171 -117 515 -250 862 -331
160 -38 309 -71 345 -76 19 -3 67 -11 105 -19 39 -8 86 -16 105 -19 19 -2 62
-9 95 -15 66 -11 105 -17 180 -26 28 -4 61 -8 75 -10 14 -3 45 -7 70 -10 25
-3 61 -7 80 -10 19 -3 58 -7 85 -10 28 -3 73 -8 100 -11 230 -24 323 -33 420
-39 39 -2 106 -7 150 -10 362 -25 570 -30 1135 -30 506 1 801 7 946 20 27 2
96 7 154 10 58 3 125 7 150 9 25 3 81 7 125 11 97 7 179 15 220 20 17 2 59 6
95 10 64 6 93 9 178 20 23 3 60 7 82 10 99 12 286 39 353 50 15 3 39 7 55 10
237 39 465 88 662 139 633 167 968 376 959 598 -1 29 -7 61 -13 71 -8 13 -8
20 3 26 11 7 11 15 0 47 -7 22 -14 44 -15 49 -2 9 -26 93 -135 460 -17 55 -38
129 -49 165 -10 36 -41 142 -68 235 -28 94 -87 294 -132 445 -44 151 -92 313
-106 360 -14 47 -29 99 -34 115 -5 17 -20 68 -34 115 -14 47 -62 209 -106 360
-95 324 -109 371 -151 510 -17 58 -41 141 -54 185 -13 44 -40 136 -60 205 -20
69 -49 168 -65 220 -15 52 -33 109 -40 125 -6 17 -11 30 -10 30 3 0 -20 86
-76 275 -30 102 -68 232 -85 290 -17 58 -34 116 -39 130 -9 27 -23 73 -96 325
-25 88 -59 203 -75 255 -41 136 -279 942 -283 960 -2 8 -27 92 -54 185 -28 94
-92 310 -142 480 -95 320 -166 563 -219 745 -17 58 -35 119 -40 135 -13 39
-179 603 -237 805 -25 85 -54 184 -65 220 -27 89 -28 93 -109 370 -40 135 -93
313 -117 395 -25 83 -49 164 -53 180 -5 17 -27 93 -50 170 -23 77 -48 165 -56
195 -8 30 -19 64 -23 75 -5 11 -20 61 -34 110 -14 50 -66 230 -116 400 -50
171 -98 335 -107 365 -9 30 -19 66 -24 80 -11 33 -49 161 -104 350 -25 85 -71
241 -102 345 -30 105 -71 244 -91 310 -19 66 -55 188 -80 270 -25 83 -49 165
-53 183 -5 19 -13 46 -18 60 -6 15 -36 117 -67 227 -31 110 -64 218 -73 240
-51 129 -210 191 -338 131z"/>
</g>
</svg>
